<svg width="20" height="21" viewBox="0 0 20 21" fill="none" xmlns="http://www.w3.org/2000/svg">
<path d="M2.57814 2.375C2.06014 2.375 1.56335 2.58078 1.19707 2.94706C0.830788 3.31334 0.625013 3.81012 0.625013 4.32813V9.25H0.626263C0.625335 9.27603 0.624918 9.30208 0.625013 9.32812V17.9544C0.625013 18.4724 0.830788 18.9692 1.19707 19.3354C1.56335 19.7017 2.06014 19.9075 2.57814 19.9075H17.4219C17.9399 19.9075 18.4367 19.7017 18.803 19.3354C19.1692 18.9692 19.375 18.4724 19.375 17.9544V9.32812C19.375 9.30188 19.375 9.27563 19.3731 9.25H19.375V6.83563C19.375 6.31762 19.1692 5.82084 18.803 5.45456C18.4367 5.08828 17.9399 4.8825 17.4219 4.8825H10.5544C10.3681 4.8825 10.1894 4.80875 10.0575 4.67688L8.50939 3.13C8.27012 2.89057 7.986 2.70065 7.67329 2.5711C7.36057 2.44155 7.02538 2.37492 6.68689 2.375H2.57814ZM18.125 7.50562C17.9007 7.41908 17.6623 7.37479 17.4219 7.375H2.57814C2.3377 7.37468 2.09929 7.41897 1.87501 7.50562V4.32813C1.87501 3.94 2.19001 3.625 2.57814 3.625H6.68689C7.03939 3.625 7.37689 3.765 7.62564 4.01375L9.17376 5.56125C9.54001 5.92687 10.0363 6.1325 10.555 6.1325H17.4219C17.8106 6.1325 18.125 6.4475 18.125 6.83563V7.50562ZM1.87501 9.32812C1.87501 8.94 2.19001 8.625 2.57814 8.625H17.4219C17.8106 8.625 18.125 8.94 18.125 9.32812V17.9544C18.125 18.3431 17.8106 18.6575 17.4219 18.6575H2.57814C2.39166 18.6575 2.21282 18.5834 2.08095 18.4516C1.94909 18.3197 1.87501 18.1409 1.87501 17.9544V9.32812Z" fill="#90A0B7"/>
</svg>
